# xmcd
#
# Track frame offsets:
#	150
#	26980
#	47632
#	65116
#	87817
#	101781
#	120152
#	136540
#	157027
#	173850
#	192221
#	227489
#
# Disc length: 3329 seconds
#
# Revision: 1
# Processed by: cddbd v1.5.2PL0 Copyright (c) Steve Scherf et al.
# Submitted via: audiograbber 1.82.02
#
DISCID=980cff0c
DTITLE=Zezé Di Camargo and Luciano - Duas Horas de Sucesso - Vol. 1
DYEAR=2009
DGENRE=Country
TTITLE0=Vem Ficar Comigo - A Ferro e Fogo
TTITLE1=Sufocado (Drowning)
TTITLE2=Tarde Demais
TTITLE3=Fui Eu
TTITLE4=O Povo Fala
TTITLE5=Pra Mudar a Minha Vida
TTITLE6=Diz Pro Meu Olhar
TTITLE7=Não Quero Te Perder
TTITLE8=No Dia em que Eu Saí de Casa
TTITLE9=Nunca Amei Assim
TTITLE10=Como um Anjo - Faz Mais uma Vez Comigo
TTITLE11=Meu País
EXTD=
EXTT0=
EXTT1=
EXTT2=
EXTT3=
EXTT4=
EXTT5=
EXTT6=
EXTT7=
EXTT8=
EXTT9=
EXTT10=
EXTT11=
PLAYORDER=
